<?xml version="1.0" standalone="no"?>
<svg xmlns="http://www.w3.org/2000/svg" width="300" height="300"><defs><clipPath id="clip-path-dot-color"><circle cx="5.5" cy="95.5" r="4.5" transform="rotate(0,5.5,95.5)"/><circle cx="5.5" cy="104.5" r="4.5" transform="rotate(0,5.5,104.5)"/><circle cx="5.5" cy="131.5" r="4.5" transform="rotate(0,5.5,131.5)"/><circle cx="5.5" cy="140.5" r="4.5" transform="rotate(0,5.5,140.5)"/><circle cx="5.5" cy="149.5" r="4.5" transform="rotate(0,5.5,149.5)"/><circle cx="5.5" cy="167.5" r="4.5" transform="rotate(0,5.5,167.5)"/><circle cx="5.5" cy="176.5" r="4.5" transform="rotate(0,5.5,176.5)"/><circle cx="5.5" cy="185.5" r="4.5" transform="rotate(0,5.5,185.5)"/><circle cx="5.5" cy="194.5" r="4.5" transform="rotate(0,5.5,194.5)"/><circle cx="5.5" cy="212.5" r="4.5" transform="rotate(0,5.5,212.5)"/><circle cx="14.5" cy="77.5" r="4.5" transform="rotate(0,14.5,77.5)"/><circle cx="14.5" cy="86.5" r="4.5" transform="rotate(0,14.5,86.5)"/><circle cx="14.5" cy="104.5" r="4.5" transform="rotate(0,14.5,104.5)"/><circle cx="14.5" cy="113.5" r="4.5" transform="rotate(0,14.5,113.5)"/><circle cx="14.5" cy="131.5" r="4.5" transform="rotate(0,14.5,131.5)"/><circle cx="14.5" cy="140.5" r="4.5" transform="rotate(0,14.5,140.5)"/><circle cx="14.5" cy="149.5" r="4.5" transform="rotate(0,14.5,149.5)"/><circle cx="14.5" cy="158.5" r="4.5" transform="rotate(0,14.5,158.5)"/><circle cx="14.5" cy="185.5" r="4.5" transform="rotate(0,14.5,185.5)"/><circle cx="14.5" cy="212.5" r="4.5" transform="rotate(0,14.5,212.5)"/><circle cx="14.5" cy="221.5" r="4.5" transform="rotate(0,14.5,221.5)"/><circle cx="23.5" cy="77.5" r="4.5" transform="rotate(0,23.5,77.5)"/><circle cx="23.5" cy="86.5" r="4.5" transform="rotate(0,23.5,86.5)"/><circle cx="23.5" cy="122.5" r="4.5" transform="rotate(0,23.5,122.5)"/><circle cx="23.5" cy="140.5" r="4.5" transform="rotate(0,23.5,140.5)"/><circle cx="23.5" cy="167.5" r="4.5" transform="rotate(0,23.5,167.5)"/><circle cx="23.5" cy="221.5" r="4.5" transform="rotate(0,23.5,221.5)"/><circle cx="32.5" cy="95.5" r="4.5" transform="rotate(0,32.5,95.5)"/><circle cx="32.5" cy="113.5" r="4.5" transform="rotate(0,32.5,113.5)"/><circle cx="32.5" cy="122.5" r="4.5" transform="rotate(0,32.5,122.5)"/><circle cx="32.5" cy="167.5" r="4.5" transform="rotate(0,32.5,167.5)"/><circle cx="32.5" cy="176.5" r="4.5" transform="rotate(0,32.5,176.5)"/><circle cx="32.5" cy="194.5" r="4.5" transform="rotate(0,32.5,194.5)"/><circle cx="32.5" cy="221.5" r="4.5" transform="rotate(0,32.5,221.5)"/><circle cx="41.5" cy="86.5" r="4.5" transform="rotate(0,41.5,86.5)"/><circle cx="41.5" cy="95.5" r="4.5" transform="rotate(0,41.5,95.5)"/><circle cx="41.5" cy="104.5" r="4.5" transform="rotate(0,41.5,104.5)"/><circle cx="41.5" cy="113.5" r="4.5" transform="rotate(0,41.5,113.5)"/><circle cx="41.5" cy="131.5" r="4.5" transform="rotate(0,41.5,131.5)"/><circle cx="41.5" cy="140.5" r="4.5" transform="rotate(0,41.5,140.5)"/><circle cx="41.5" cy="149.5" r="4.5" transform="rotate(0,41.5,149.5)"/><circle cx="41.5" cy="158.5" r="4.5" transform="rotate(0,41.5,158.5)"/><circle cx="41.5" cy="167.5" r="4.5" transform="rotate(0,41.5,167.5)"/><circle cx="41.5" cy="203.5" r="4.5" transform="rotate(0,41.5,203.5)"/><circle cx="41.5" cy="212.5" r="4.5" transform="rotate(0,41.5,212.5)"/><circle cx="41.5" cy="221.5" r="4.5" transform="rotate(0,41.5,221.5)"/><circle cx="50.5" cy="113.5" r="4.5" transform="rotate(0,50.5,113.5)"/><circle cx="50.5" cy="194.5" r="4.5" transform="rotate(0,50.5,194.5)"/><circle cx="50.5" cy="203.5" r="4.5" transform="rotate(0,50.5,203.5)"/><circle cx="50.5" cy="212.5" r="4.5" transform="rotate(0,50.5,212.5)"/><circle cx="59.5" cy="77.5" r="4.5" transform="rotate(0,59.5,77.5)"/><circle cx="59.5" cy="95.5" r="4.5" transform="rotate(0,59.5,95.5)"/><circle cx="59.5" cy="113.5" r="4.5" transform="rotate(0,59.5,113.5)"/><circle cx="59.5" cy="131.5" r="4.5" transform="rotate(0,59.5,131.5)"/><circle cx="59.5" cy="149.5" r="4.5" transform="rotate(0,59.5,149.5)"/><circle cx="59.5" cy="167.5" r="4.5" transform="rotate(0,59.5,167.5)"/><circle cx="59.5" cy="185.5" r="4.5" transform="rotate(0,59.5,185.5)"/><circle cx="59.5" cy="203.5" r="4.5" transform="rotate(0,59.5,203.5)"/><circle cx="59.5" cy="221.5" r="4.5" transform="rotate(0,59.5,221.5)"/><circle cx="68.5" cy="104.5" r="4.5" transform="rotate(0,68.5,104.5)"/><circle cx="68.5" cy="131.5" r="4.5" transform="rotate(0,68.5,131.5)"/><circle cx="68.5" cy="140.5" r="4.5" transform="rotate(0,68.5,140.5)"/><circle cx="68.5" cy="158.5" r="4.5" transform="rotate(0,68.5,158.5)"/><circle cx="68.5" cy="167.5" r="4.5" transform="rotate(0,68.5,167.5)"/><circle cx="68.5" cy="176.5" r="4.5" transform="rotate(0,68.5,176.5)"/><circle cx="68.5" cy="221.5" r="4.5" transform="rotate(0,68.5,221.5)"/><circle cx="77.5" cy="14.5" r="4.5" transform="rotate(0,77.5,14.5)"/><circle cx="77.5" cy="23.5" r="4.5" transform="rotate(0,77.5,23.5)"/><circle cx="77.5" cy="32.5" r="4.5" transform="rotate(0,77.5,32.5)"/><circle cx="77.5" cy="50.5" r="4.5" transform="rotate(0,77.5,50.5)"/><circle cx="77.5" cy="59.5" r="4.5" transform="rotate(0,77.5,59.5)"/><circle cx="77.5" cy="86.5" r="4.5" transform="rotate(0,77.5,86.5)"/><circle cx="77.5" cy="95.5" r="4.5" transform="rotate(0,77.5,95.5)"/><circle cx="77.5" cy="140.5" r="4.5" transform="rotate(0,77.5,140.5)"/><circle cx="77.5" cy="158.5" r="4.5" transform="rotate(0,77.5,158.5)"/><circle cx="77.5" cy="167.5" r="4.5" transform="rotate(0,77.5,167.5)"/><circle cx="77.5" cy="194.5" r="4.5" transform="rotate(0,77.5,194.5)"/><circle cx="77.5" cy="203.5" r="4.5" transform="rotate(0,77.5,203.5)"/><circle cx="77.5" cy="212.5" r="4.5" transform="rotate(0,77.5,212.5)"/><circle cx="77.5" cy="221.5" r="4.5" transform="rotate(0,77.5,221.5)"/><circle cx="77.5" cy="275.5" r="4.5" transform="rotate(0,77.5,275.5)"/><circle cx="77.5" cy="284.5" r="4.5" transform="rotate(0,77.5,284.5)"/><circle cx="86.5" cy="5.5" r="4.5" transform="rotate(0,86.5,5.5)"/><circle cx="86.5" cy="14.5" r="4.5" transform="rotate(0,86.5,14.5)"/><circle cx="86.5" cy="23.5" r="4.5" transform="rotate(0,86.5,23.5)"/><circle cx="86.5" cy="41.5" r="4.5" transform="rotate(0,86.5,41.5)"/><circle cx="86.5" cy="68.5" r="4.5" transform="rotate(0,86.5,68.5)"/><circle cx="86.5" cy="77.5" r="4.5" transform="rotate(0,86.5,77.5)"/><circle cx="86.5" cy="158.5" r="4.5" transform="rotate(0,86.5,158.5)"/><circle cx="86.5" cy="176.5" r="4.5" transform="rotate(0,86.5,176.5)"/><circle cx="86.5" cy="185.5" r="4.5" transform="rotate(0,86.5,185.5)"/><circle cx="86.5" cy="212.5" r="4.5" transform="rotate(0,86.5,212.5)"/><circle cx="86.5" cy="239.5" r="4.5" transform="rotate(0,86.5,239.5)"/><circle cx="86.5" cy="248.5" r="4.5" transform="rotate(0,86.5,248.5)"/><circle cx="86.5" cy="266.5" r="4.5" transform="rotate(0,86.5,266.5)"/><circle cx="86.5" cy="275.5" r="4.5" transform="rotate(0,86.5,275.5)"/><circle cx="86.5" cy="293.5" r="4.5" transform="rotate(0,86.5,293.5)"/><circle cx="95.5" cy="5.5" r="4.5" transform="rotate(0,95.5,5.5)"/><circle cx="95.5" cy="14.5" r="4.5" transform="rotate(0,95.5,14.5)"/><circle cx="95.5" cy="32.5" r="4.5" transform="rotate(0,95.5,32.5)"/><circle cx="95.5" cy="41.5" r="4.5" transform="rotate(0,95.5,41.5)"/><circle cx="95.5" cy="50.5" r="4.5" transform="rotate(0,95.5,50.5)"/><circle cx="95.5" cy="59.5" r="4.5" transform="rotate(0,95.5,59.5)"/><circle cx="95.5" cy="86.5" r="4.5" transform="rotate(0,95.5,86.5)"/><circle cx="95.5" cy="104.5" r="4.5" transform="rotate(0,95.5,104.5)"/><circle cx="95.5" cy="113.5" r="4.5" transform="rotate(0,95.5,113.5)"/><circle cx="95.5" cy="122.5" r="4.5" transform="rotate(0,95.5,122.5)"/><circle cx="95.5" cy="131.5" r="4.5" transform="rotate(0,95.5,131.5)"/><circle cx="95.5" cy="140.5" r="4.5" transform="rotate(0,95.5,140.5)"/><circle cx="95.5" cy="167.5" r="4.5" transform="rotate(0,95.5,167.5)"/><circle cx="95.5" cy="194.5" r="4.5" transform="rotate(0,95.5,194.5)"/><circle cx="95.5" cy="203.5" r="4.5" transform="rotate(0,95.5,203.5)"/><circle cx="95.5" cy="212.5" r="4.5" transform="rotate(0,95.5,212.5)"/><circle cx="95.5" cy="230.5" r="4.5" transform="rotate(0,95.5,230.5)"/><circle cx="95.5" cy="239.5" r="4.5" transform="rotate(0,95.5,239.5)"/><circle cx="95.5" cy="248.5" r="4.5" transform="rotate(0,95.5,248.5)"/><circle cx="95.5" cy="257.5" r="4.5" transform="rotate(0,95.5,257.5)"/><circle cx="95.5" cy="266.5" r="4.5" transform="rotate(0,95.5,266.5)"/><circle cx="95.5" cy="293.5" r="4.5" transform="rotate(0,95.5,293.5)"/><circle cx="104.5" cy="5.5" r="4.5" transform="rotate(0,104.5,5.5)"/><circle cx="104.5" cy="14.5" r="4.5" transform="rotate(0,104.5,14.5)"/><circle cx="104.5" cy="68.5" r="4.5" transform="rotate(0,104.5,68.5)"/><circle cx="104.5" cy="86.5" r="4.5" transform="rotate(0,104.5,86.5)"/><circle cx="104.5" cy="95.5" r="4.5" transform="rotate(0,104.5,95.5)"/><circle cx="104.5" cy="104.5" r="4.5" transform="rotate(0,104.5,104.5)"/><circle cx="104.5" cy="113.5" r="4.5" transform="rotate(0,104.5,113.5)"/><circle cx="104.5" cy="131.5" r="4.5" transform="rotate(0,104.5,131.5)"/><circle cx="104.5" cy="140.5" r="4.5" transform="rotate(0,104.5,140.5)"/><circle cx="104.5" cy="149.5" r="4.5" transform="rotate(0,104.5,149.5)"/><circle cx="104.5" cy="158.5" r="4.5" transform="rotate(0,104.5,158.5)"/><circle cx="104.5" cy="194.5" r="4.5" transform="rotate(0,104.5,194.5)"/><circle cx="104.5" cy="203.5" r="4.5" transform="rotate(0,104.5,203.5)"/><circle cx="104.5" cy="239.5" r="4.5" transform="rotate(0,104.5,239.5)"/><circle cx="104.5" cy="248.5" r="4.5" transform="rotate(0,104.5,248.5)"/><circle cx="104.5" cy="266.5" r="4.5" transform="rotate(0,104.5,266.5)"/><circle cx="104.5" cy="284.5" r="4.5" transform="rotate(0,104.5,284.5)"/><circle cx="113.5" cy="14.5" r="4.5" transform="rotate(0,113.5,14.5)"/><circle cx="113.5" cy="23.5" r="4.5" transform="rotate(0,113.5,23.5)"/><circle cx="113.5" cy="59.5" r="4.5" transform="rotate(0,113.5,59.5)"/><circle cx="113.5" cy="68.5" r="4.5" transform="rotate(0,113.5,68.5)"/><circle cx="113.5" cy="95.5" r="4.5" transform="rotate(0,113.5,95.5)"/><circle cx="113.5" cy="185.5" r="4.5" transform="rotate(0,113.5,185.5)"/><circle cx="113.5" cy="194.5" r="4.5" transform="rotate(0,113.5,194.5)"/><circle cx="113.5" cy="203.5" r="4.5" transform="rotate(0,113.5,203.5)"/><circle cx="113.5" cy="212.5" r="4.5" transform="rotate(0,113.5,212.5)"/><circle cx="113.5" cy="221.5" r="4.5" transform="rotate(0,113.5,221.5)"/><circle cx="113.5" cy="248.5" r="4.5" transform="rotate(0,113.5,248.5)"/><circle cx="113.5" cy="257.5" r="4.5" transform="rotate(0,113.5,257.5)"/><circle cx="113.5" cy="266.5" r="4.5" transform="rotate(0,113.5,266.5)"/><circle cx="113.5" cy="284.5" r="4.5" transform="rotate(0,113.5,284.5)"/><circle cx="113.5" cy="293.5" r="4.5" transform="rotate(0,113.5,293.5)"/><circle cx="122.5" cy="5.5" r="4.5" transform="rotate(0,122.5,5.5)"/><circle cx="122.5" cy="77.5" r="4.5" transform="rotate(0,122.5,77.5)"/><circle cx="122.5" cy="86.5" r="4.5" transform="rotate(0,122.5,86.5)"/><circle cx="122.5" cy="104.5" r="4.5" transform="rotate(0,122.5,104.5)"/><circle cx="122.5" cy="113.5" r="4.5" transform="rotate(0,122.5,113.5)"/><circle cx="122.5" cy="122.5" r="4.5" transform="rotate(0,122.5,122.5)"/><circle cx="122.5" cy="131.5" r="4.5" transform="rotate(0,122.5,131.5)"/><circle cx="122.5" cy="149.5" r="4.5" transform="rotate(0,122.5,149.5)"/><circle cx="122.5" cy="185.5" r="4.5" transform="rotate(0,122.5,185.5)"/><circle cx="122.5" cy="194.5" r="4.5" transform="rotate(0,122.5,194.5)"/><circle cx="122.5" cy="212.5" r="4.5" transform="rotate(0,122.5,212.5)"/><circle cx="122.5" cy="248.5" r="4.5" transform="rotate(0,122.5,248.5)"/><circle cx="122.5" cy="275.5" r="4.5" transform="rotate(0,122.5,275.5)"/><circle cx="122.5" cy="284.5" r="4.5" transform="rotate(0,122.5,284.5)"/><circle cx="131.5" cy="32.5" r="4.5" transform="rotate(0,131.5,32.5)"/><circle cx="131.5" cy="50.5" r="4.5" transform="rotate(0,131.5,50.5)"/><circle cx="131.5" cy="59.5" r="4.5" transform="rotate(0,131.5,59.5)"/><circle cx="131.5" cy="86.5" r="4.5" transform="rotate(0,131.5,86.5)"/><circle cx="131.5" cy="95.5" r="4.5" transform="rotate(0,131.5,95.5)"/><circle cx="131.5" cy="104.5" r="4.5" transform="rotate(0,131.5,104.5)"/><circle cx="131.5" cy="140.5" r="4.5" transform="rotate(0,131.5,140.5)"/><circle cx="131.5" cy="149.5" r="4.5" transform="rotate(0,131.5,149.5)"/><circle cx="131.5" cy="167.5" r="4.5" transform="rotate(0,131.5,167.5)"/><circle cx="131.5" cy="176.5" r="4.5" transform="rotate(0,131.5,176.5)"/><circle cx="131.5" cy="185.5" r="4.5" transform="rotate(0,131.5,185.5)"/><circle cx="131.5" cy="194.5" r="4.5" transform="rotate(0,131.5,194.5)"/><circle cx="131.5" cy="239.5" r="4.5" transform="rotate(0,131.5,239.5)"/><circle cx="131.5" cy="248.5" r="4.5" transform="rotate(0,131.5,248.5)"/><circle cx="131.5" cy="266.5" r="4.5" transform="rotate(0,131.5,266.5)"/><circle cx="131.5" cy="275.5" r="4.5" transform="rotate(0,131.5,275.5)"/><circle cx="140.5" cy="14.5" r="4.5" transform="rotate(0,140.5,14.5)"/><circle cx="140.5" cy="23.5" r="4.5" transform="rotate(0,140.5,23.5)"/><circle cx="140.5" cy="41.5" r="4.5" transform="rotate(0,140.5,41.5)"/><circle cx="140.5" cy="86.5" r="4.5" transform="rotate(0,140.5,86.5)"/><circle cx="140.5" cy="104.5" r="4.5" transform="rotate(0,140.5,104.5)"/><circle cx="140.5" cy="113.5" r="4.5" transform="rotate(0,140.5,113.5)"/><circle cx="140.5" cy="131.5" r="4.5" transform="rotate(0,140.5,131.5)"/><circle cx="140.5" cy="140.5" r="4.5" transform="rotate(0,140.5,140.5)"/><circle cx="140.5" cy="158.5" r="4.5" transform="rotate(0,140.5,158.5)"/><circle cx="140.5" cy="167.5" r="4.5" transform="rotate(0,140.5,167.5)"/><circle cx="140.5" cy="194.5" r="4.5" transform="rotate(0,140.5,194.5)"/><circle cx="140.5" cy="221.5" r="4.5" transform="rotate(0,140.5,221.5)"/><circle cx="140.5" cy="230.5" r="4.5" transform="rotate(0,140.5,230.5)"/><circle cx="140.5" cy="239.5" r="4.5" transform="rotate(0,140.5,239.5)"/><circle cx="140.5" cy="257.5" r="4.5" transform="rotate(0,140.5,257.5)"/><circle cx="140.5" cy="266.5" r="4.5" transform="rotate(0,140.5,266.5)"/><circle cx="140.5" cy="275.5" r="4.5" transform="rotate(0,140.5,275.5)"/><circle cx="149.5" cy="59.5" r="4.5" transform="rotate(0,149.5,59.5)"/><circle cx="149.5" cy="68.5" r="4.5" transform="rotate(0,149.5,68.5)"/><circle cx="149.5" cy="86.5" r="4.5" transform="rotate(0,149.5,86.5)"/><circle cx="149.5" cy="104.5" r="4.5" transform="rotate(0,149.5,104.5)"/><circle cx="149.5" cy="122.5" r="4.5" transform="rotate(0,149.5,122.5)"/><circle cx="149.5" cy="131.5" r="4.5" transform="rotate(0,149.5,131.5)"/><circle cx="149.5" cy="140.5" r="4.5" transform="rotate(0,149.5,140.5)"/><circle cx="149.5" cy="158.5" r="4.5" transform="rotate(0,149.5,158.5)"/><circle cx="149.5" cy="167.5" r="4.5" transform="rotate(0,149.5,167.5)"/><circle cx="149.5" cy="185.5" r="4.5" transform="rotate(0,149.5,185.5)"/><circle cx="149.5" cy="194.5" r="4.5" transform="rotate(0,149.5,194.5)"/><circle cx="149.5" cy="203.5" r="4.5" transform="rotate(0,149.5,203.5)"/><circle cx="149.5" cy="212.5" r="4.5" transform="rotate(0,149.5,212.5)"/><circle cx="149.5" cy="230.5" r="4.5" transform="rotate(0,149.5,230.5)"/><circle cx="149.5" cy="239.5" r="4.5" transform="rotate(0,149.5,239.5)"/><circle cx="149.5" cy="257.5" r="4.5" transform="rotate(0,149.5,257.5)"/><circle cx="149.5" cy="275.5" r="4.5" transform="rotate(0,149.5,275.5)"/><circle cx="158.5" cy="50.5" r="4.5" transform="rotate(0,158.5,50.5)"/><circle cx="158.5" cy="68.5" r="4.5" transform="rotate(0,158.5,68.5)"/><circle cx="158.5" cy="86.5" r="4.5" transform="rotate(0,158.5,86.5)"/><circle cx="158.5" cy="95.5" r="4.5" transform="rotate(0,158.5,95.5)"/><circle cx="158.5" cy="140.5" r="4.5" transform="rotate(0,158.5,140.5)"/><circle cx="158.5" cy="149.5" r="4.5" transform="rotate(0,158.5,149.5)"/><circle cx="158.5" cy="158.5" r="4.5" transform="rotate(0,158.5,158.5)"/><circle cx="158.5" cy="185.5" r="4.5" transform="rotate(0,158.5,185.5)"/><circle cx="158.5" cy="203.5" r="4.5" transform="rotate(0,158.5,203.5)"/><circle cx="158.5" cy="212.5" r="4.5" transform="rotate(0,158.5,212.5)"/><circle cx="158.5" cy="221.5" r="4.5" transform="rotate(0,158.5,221.5)"/><circle cx="158.5" cy="230.5" r="4.5" transform="rotate(0,158.5,230.5)"/><circle cx="158.5" cy="239.5" r="4.5" transform="rotate(0,158.5,239.5)"/><circle cx="158.5" cy="257.5" r="4.5" transform="rotate(0,158.5,257.5)"/><circle cx="158.5" cy="266.5" r="4.5" transform="rotate(0,158.5,266.5)"/><circle cx="158.5" cy="284.5" r="4.5" transform="rotate(0,158.5,284.5)"/><circle cx="158.5" cy="293.5" r="4.5" transform="rotate(0,158.5,293.5)"/><circle cx="167.5" cy="14.5" r="4.5" transform="rotate(0,167.5,14.5)"/><circle cx="167.5" cy="23.5" r="4.5" transform="rotate(0,167.5,23.5)"/><circle cx="167.5" cy="32.5" r="4.5" transform="rotate(0,167.5,32.5)"/><circle cx="167.5" cy="41.5" r="4.5" transform="rotate(0,167.5,41.5)"/><circle cx="167.5" cy="59.5" r="4.5" transform="rotate(0,167.5,59.5)"/><circle cx="167.5" cy="77.5" r="4.5" transform="rotate(0,167.5,77.5)"/><circle cx="167.5" cy="86.5" r="4.5" transform="rotate(0,167.5,86.5)"/><circle cx="167.5" cy="104.5" r="4.5" transform="rotate(0,167.5,104.5)"/><circle cx="167.5" cy="131.5" r="4.5" transform="rotate(0,167.5,131.5)"/><circle cx="167.5" cy="140.5" r="4.5" transform="rotate(0,167.5,140.5)"/><circle cx="167.5" cy="167.5" r="4.5" transform="rotate(0,167.5,167.5)"/><circle cx="167.5" cy="185.5" r="4.5" transform="rotate(0,167.5,185.5)"/><circle cx="167.5" cy="194.5" r="4.5" transform="rotate(0,167.5,194.5)"/><circle cx="167.5" cy="221.5" r="4.5" transform="rotate(0,167.5,221.5)"/><circle cx="167.5" cy="230.5" r="4.5" transform="rotate(0,167.5,230.5)"/><circle cx="167.5" cy="239.5" r="4.5" transform="rotate(0,167.5,239.5)"/><circle cx="167.5" cy="248.5" r="4.5" transform="rotate(0,167.5,248.5)"/><circle cx="167.5" cy="257.5" r="4.5" transform="rotate(0,167.5,257.5)"/><circle cx="167.5" cy="275.5" r="4.5" transform="rotate(0,167.5,275.5)"/><circle cx="167.5" cy="284.5" r="4.5" transform="rotate(0,167.5,284.5)"/><circle cx="176.5" cy="14.5" r="4.5" transform="rotate(0,176.5,14.5)"/><circle cx="176.5" cy="23.5" r="4.5" transform="rotate(0,176.5,23.5)"/><circle cx="176.5" cy="41.5" r="4.5" transform="rotate(0,176.5,41.5)"/><circle cx="176.5" cy="68.5" r="4.5" transform="rotate(0,176.5,68.5)"/><circle cx="176.5" cy="86.5" r="4.5" transform="rotate(0,176.5,86.5)"/><circle cx="176.5" cy="95.5" r="4.5" transform="rotate(0,176.5,95.5)"/><circle cx="176.5" cy="104.5" r="4.5" transform="rotate(0,176.5,104.5)"/><circle cx="176.5" cy="131.5" r="4.5" transform="rotate(0,176.5,131.5)"/><circle cx="176.5" cy="149.5" r="4.5" transform="rotate(0,176.5,149.5)"/><circle cx="176.5" cy="176.5" r="4.5" transform="rotate(0,176.5,176.5)"/><circle cx="176.5" cy="203.5" r="4.5" transform="rotate(0,176.5,203.5)"/><circle cx="176.5" cy="212.5" r="4.5" transform="rotate(0,176.5,212.5)"/><circle cx="176.5" cy="221.5" r="4.5" transform="rotate(0,176.5,221.5)"/><circle cx="176.5" cy="230.5" r="4.5" transform="rotate(0,176.5,230.5)"/><circle cx="176.5" cy="239.5" r="4.5" transform="rotate(0,176.5,239.5)"/><circle cx="176.5" cy="257.5" r="4.5" transform="rotate(0,176.5,257.5)"/><circle cx="176.5" cy="293.5" r="4.5" transform="rotate(0,176.5,293.5)"/><circle cx="185.5" cy="14.5" r="4.5" transform="rotate(0,185.5,14.5)"/><circle cx="185.5" cy="23.5" r="4.5" transform="rotate(0,185.5,23.5)"/><circle cx="185.5" cy="41.5" r="4.5" transform="rotate(0,185.5,41.5)"/><circle cx="185.5" cy="59.5" r="4.5" transform="rotate(0,185.5,59.5)"/><circle cx="185.5" cy="77.5" r="4.5" transform="rotate(0,185.5,77.5)"/><circle cx="185.5" cy="140.5" r="4.5" transform="rotate(0,185.5,140.5)"/><circle cx="185.5" cy="149.5" r="4.5" transform="rotate(0,185.5,149.5)"/><circle cx="185.5" cy="167.5" r="4.5" transform="rotate(0,185.5,167.5)"/><circle cx="185.5" cy="203.5" r="4.5" transform="rotate(0,185.5,203.5)"/><circle cx="185.5" cy="221.5" r="4.5" transform="rotate(0,185.5,221.5)"/><circle cx="185.5" cy="266.5" r="4.5" transform="rotate(0,185.5,266.5)"/><circle cx="185.5" cy="275.5" r="4.5" transform="rotate(0,185.5,275.5)"/><circle cx="185.5" cy="284.5" r="4.5" transform="rotate(0,185.5,284.5)"/><circle cx="194.5" cy="5.5" r="4.5" transform="rotate(0,194.5,5.5)"/><circle cx="194.5" cy="14.5" r="4.5" transform="rotate(0,194.5,14.5)"/><circle cx="194.5" cy="23.5" r="4.5" transform="rotate(0,194.5,23.5)"/><circle cx="194.5" cy="32.5" r="4.5" transform="rotate(0,194.5,32.5)"/><circle cx="194.5" cy="68.5" r="4.5" transform="rotate(0,194.5,68.5)"/><circle cx="194.5" cy="95.5" r="4.5" transform="rotate(0,194.5,95.5)"/><circle cx="194.5" cy="104.5" r="4.5" transform="rotate(0,194.5,104.5)"/><circle cx="194.5" cy="113.5" r="4.5" transform="rotate(0,194.5,113.5)"/><circle cx="194.5" cy="131.5" r="4.5" transform="rotate(0,194.5,131.5)"/><circle cx="194.5" cy="167.5" r="4.5" transform="rotate(0,194.5,167.5)"/><circle cx="194.5" cy="185.5" r="4.5" transform="rotate(0,194.5,185.5)"/><circle cx="194.5" cy="194.5" r="4.5" transform="rotate(0,194.5,194.5)"/><circle cx="194.5" cy="203.5" r="4.5" transform="rotate(0,194.5,203.5)"/><circle cx="194.5" cy="212.5" r="4.5" transform="rotate(0,194.5,212.5)"/><circle cx="194.5" cy="239.5" r="4.5" transform="rotate(0,194.5,239.5)"/><circle cx="194.5" cy="275.5" r="4.5" transform="rotate(0,194.5,275.5)"/><circle cx="194.5" cy="293.5" r="4.5" transform="rotate(0,194.5,293.5)"/><circle cx="203.5" cy="32.5" r="4.5" transform="rotate(0,203.5,32.5)"/><circle cx="203.5" cy="41.5" r="4.5" transform="rotate(0,203.5,41.5)"/><circle cx="203.5" cy="50.5" r="4.5" transform="rotate(0,203.5,50.5)"/><circle cx="203.5" cy="59.5" r="4.5" transform="rotate(0,203.5,59.5)"/><circle cx="203.5" cy="104.5" r="4.5" transform="rotate(0,203.5,104.5)"/><circle cx="203.5" cy="113.5" r="4.5" transform="rotate(0,203.5,113.5)"/><circle cx="203.5" cy="149.5" r="4.5" transform="rotate(0,203.5,149.5)"/><circle cx="203.5" cy="158.5" r="4.5" transform="rotate(0,203.5,158.5)"/><circle cx="203.5" cy="176.5" r="4.5" transform="rotate(0,203.5,176.5)"/><circle cx="203.5" cy="185.5" r="4.5" transform="rotate(0,203.5,185.5)"/><circle cx="203.5" cy="194.5" r="4.5" transform="rotate(0,203.5,194.5)"/><circle cx="203.5" cy="212.5" r="4.5" transform="rotate(0,203.5,212.5)"/><circle cx="203.5" cy="230.5" r="4.5" transform="rotate(0,203.5,230.5)"/><circle cx="203.5" cy="239.5" r="4.5" transform="rotate(0,203.5,239.5)"/><circle cx="203.5" cy="266.5" r="4.5" transform="rotate(0,203.5,266.5)"/><circle cx="203.5" cy="275.5" r="4.5" transform="rotate(0,203.5,275.5)"/><circle cx="203.5" cy="284.5" r="4.5" transform="rotate(0,203.5,284.5)"/><circle cx="203.5" cy="293.5" r="4.5" transform="rotate(0,203.5,293.5)"/><circle cx="212.5" cy="14.5" r="4.5" transform="rotate(0,212.5,14.5)"/><circle cx="212.5" cy="23.5" r="4.5" transform="rotate(0,212.5,23.5)"/><circle cx="212.5" cy="32.5" r="4.5" transform="rotate(0,212.5,32.5)"/><circle cx="212.5" cy="50.5" r="4.5" transform="rotate(0,212.5,50.5)"/><circle cx="212.5" cy="68.5" r="4.5" transform="rotate(0,212.5,68.5)"/><circle cx="212.5" cy="113.5" r="4.5" transform="rotate(0,212.5,113.5)"/><circle cx="212.5" cy="131.5" r="4.5" transform="rotate(0,212.5,131.5)"/><circle cx="212.5" cy="140.5" r="4.5" transform="rotate(0,212.5,140.5)"/><circle cx="212.5" cy="158.5" r="4.5" transform="rotate(0,212.5,158.5)"/><circle cx="212.5" cy="167.5" r="4.5" transform="rotate(0,212.5,167.5)"/><circle cx="212.5" cy="185.5" r="4.5" transform="rotate(0,212.5,185.5)"/><circle cx="212.5" cy="239.5" r="4.5" transform="rotate(0,212.5,239.5)"/><circle cx="212.5" cy="248.5" r="4.5" transform="rotate(0,212.5,248.5)"/><circle cx="212.5" cy="266.5" r="4.5" transform="rotate(0,212.5,266.5)"/><circle cx="212.5" cy="293.5" r="4.5" transform="rotate(0,212.5,293.5)"/><circle cx="221.5" cy="5.5" r="4.5" transform="rotate(0,221.5,5.5)"/><circle cx="221.5" cy="41.5" r="4.5" transform="rotate(0,221.5,41.5)"/><circle cx="221.5" cy="50.5" r="4.5" transform="rotate(0,221.5,50.5)"/><circle cx="221.5" cy="59.5" r="4.5" transform="rotate(0,221.5,59.5)"/><circle cx="221.5" cy="77.5" r="4.5" transform="rotate(0,221.5,77.5)"/><circle cx="221.5" cy="122.5" r="4.5" transform="rotate(0,221.5,122.5)"/><circle cx="221.5" cy="131.5" r="4.5" transform="rotate(0,221.5,131.5)"/><circle cx="221.5" cy="149.5" r="4.5" transform="rotate(0,221.5,149.5)"/><circle cx="221.5" cy="158.5" r="4.5" transform="rotate(0,221.5,158.5)"/><circle cx="221.5" cy="167.5" r="4.5" transform="rotate(0,221.5,167.5)"/><circle cx="221.5" cy="176.5" r="4.5" transform="rotate(0,221.5,176.5)"/><circle cx="221.5" cy="203.5" r="4.5" transform="rotate(0,221.5,203.5)"/><circle cx="221.5" cy="221.5" r="4.5" transform="rotate(0,221.5,221.5)"/><circle cx="221.5" cy="230.5" r="4.5" transform="rotate(0,221.5,230.5)"/><circle cx="221.5" cy="239.5" r="4.5" transform="rotate(0,221.5,239.5)"/><circle cx="221.5" cy="248.5" r="4.5" transform="rotate(0,221.5,248.5)"/><circle cx="221.5" cy="257.5" r="4.5" transform="rotate(0,221.5,257.5)"/><circle cx="221.5" cy="266.5" r="4.5" transform="rotate(0,221.5,266.5)"/><circle cx="230.5" cy="77.5" r="4.5" transform="rotate(0,230.5,77.5)"/><circle cx="230.5" cy="95.5" r="4.5" transform="rotate(0,230.5,95.5)"/><circle cx="230.5" cy="104.5" r="4.5" transform="rotate(0,230.5,104.5)"/><circle cx="230.5" cy="113.5" r="4.5" transform="rotate(0,230.5,113.5)"/><circle cx="230.5" cy="158.5" r="4.5" transform="rotate(0,230.5,158.5)"/><circle cx="230.5" cy="176.5" r="4.5" transform="rotate(0,230.5,176.5)"/><circle cx="230.5" cy="185.5" r="4.5" transform="rotate(0,230.5,185.5)"/><circle cx="230.5" cy="194.5" r="4.5" transform="rotate(0,230.5,194.5)"/><circle cx="230.5" cy="221.5" r="4.5" transform="rotate(0,230.5,221.5)"/><circle cx="230.5" cy="257.5" r="4.5" transform="rotate(0,230.5,257.5)"/><circle cx="230.5" cy="266.5" r="4.5" transform="rotate(0,230.5,266.5)"/><circle cx="230.5" cy="284.5" r="4.5" transform="rotate(0,230.5,284.5)"/><circle cx="239.5" cy="95.5" r="4.5" transform="rotate(0,239.5,95.5)"/><circle cx="239.5" cy="104.5" r="4.5" transform="rotate(0,239.5,104.5)"/><circle cx="239.5" cy="113.5" r="4.5" transform="rotate(0,239.5,113.5)"/><circle cx="239.5" cy="122.5" r="4.5" transform="rotate(0,239.5,122.5)"/><circle cx="239.5" cy="149.5" r="4.5" transform="rotate(0,239.5,149.5)"/><circle cx="239.5" cy="158.5" r="4.5" transform="rotate(0,239.5,158.5)"/><circle cx="239.5" cy="167.5" r="4.5" transform="rotate(0,239.5,167.5)"/><circle cx="239.5" cy="176.5" r="4.5" transform="rotate(0,239.5,176.5)"/><circle cx="239.5" cy="185.5" r="4.5" transform="rotate(0,239.5,185.5)"/><circle cx="239.5" cy="194.5" r="4.5" transform="rotate(0,239.5,194.5)"/><circle cx="239.5" cy="212.5" r="4.5" transform="rotate(0,239.5,212.5)"/><circle cx="239.5" cy="221.5" r="4.5" transform="rotate(0,239.5,221.5)"/><circle cx="239.5" cy="239.5" r="4.5" transform="rotate(0,239.5,239.5)"/><circle cx="239.5" cy="257.5" r="4.5" transform="rotate(0,239.5,257.5)"/><circle cx="248.5" cy="77.5" r="4.5" transform="rotate(0,248.5,77.5)"/><circle cx="248.5" cy="86.5" r="4.5" transform="rotate(0,248.5,86.5)"/><circle cx="248.5" cy="104.5" r="4.5" transform="rotate(0,248.5,104.5)"/><circle cx="248.5" cy="131.5" r="4.5" transform="rotate(0,248.5,131.5)"/><circle cx="248.5" cy="140.5" r="4.5" transform="rotate(0,248.5,140.5)"/><circle cx="248.5" cy="149.5" r="4.5" transform="rotate(0,248.5,149.5)"/><circle cx="248.5" cy="185.5" r="4.5" transform="rotate(0,248.5,185.5)"/><circle cx="248.5" cy="212.5" r="4.5" transform="rotate(0,248.5,212.5)"/><circle cx="248.5" cy="221.5" r="4.5" transform="rotate(0,248.5,221.5)"/><circle cx="248.5" cy="257.5" r="4.5" transform="rotate(0,248.5,257.5)"/><circle cx="248.5" cy="266.5" r="4.5" transform="rotate(0,248.5,266.5)"/><circle cx="248.5" cy="275.5" r="4.5" transform="rotate(0,248.5,275.5)"/><circle cx="257.5" cy="86.5" r="4.5" transform="rotate(0,257.5,86.5)"/><circle cx="257.5" cy="95.5" r="4.5" transform="rotate(0,257.5,95.5)"/><circle cx="257.5" cy="104.5" r="4.5" transform="rotate(0,257.5,104.5)"/><circle cx="257.5" cy="131.5" r="4.5" transform="rotate(0,257.5,131.5)"/><circle cx="257.5" cy="167.5" r="4.5" transform="rotate(0,257.5,167.5)"/><circle cx="257.5" cy="176.5" r="4.5" transform="rotate(0,257.5,176.5)"/><circle cx="257.5" cy="203.5" r="4.5" transform="rotate(0,257.5,203.5)"/><circle cx="257.5" cy="212.5" r="4.5" transform="rotate(0,257.5,212.5)"/><circle cx="257.5" cy="221.5" r="4.5" transform="rotate(0,257.5,221.5)"/><circle cx="257.5" cy="230.5" r="4.5" transform="rotate(0,257.5,230.5)"/><circle cx="257.5" cy="239.5" r="4.5" transform="rotate(0,257.5,239.5)"/><circle cx="257.5" cy="248.5" r="4.5" transform="rotate(0,257.5,248.5)"/><circle cx="257.5" cy="257.5" r="4.5" transform="rotate(0,257.5,257.5)"/><circle cx="257.5" cy="275.5" r="4.5" transform="rotate(0,257.5,275.5)"/><circle cx="257.5" cy="293.5" r="4.5" transform="rotate(0,257.5,293.5)"/><circle cx="266.5" cy="77.5" r="4.5" transform="rotate(0,266.5,77.5)"/><circle cx="266.5" cy="95.5" r="4.5" transform="rotate(0,266.5,95.5)"/><circle cx="266.5" cy="104.5" r="4.5" transform="rotate(0,266.5,104.5)"/><circle cx="266.5" cy="158.5" r="4.5" transform="rotate(0,266.5,158.5)"/><circle cx="266.5" cy="176.5" r="4.5" transform="rotate(0,266.5,176.5)"/><circle cx="266.5" cy="194.5" r="4.5" transform="rotate(0,266.5,194.5)"/><circle cx="266.5" cy="203.5" r="4.5" transform="rotate(0,266.5,203.5)"/><circle cx="266.5" cy="212.5" r="4.5" transform="rotate(0,266.5,212.5)"/><circle cx="266.5" cy="248.5" r="4.5" transform="rotate(0,266.5,248.5)"/><circle cx="266.5" cy="266.5" r="4.5" transform="rotate(0,266.5,266.5)"/><circle cx="266.5" cy="284.5" r="4.5" transform="rotate(0,266.5,284.5)"/><circle cx="266.5" cy="293.5" r="4.5" transform="rotate(0,266.5,293.5)"/><circle cx="275.5" cy="77.5" r="4.5" transform="rotate(0,275.5,77.5)"/><circle cx="275.5" cy="104.5" r="4.5" transform="rotate(0,275.5,104.5)"/><circle cx="275.5" cy="113.5" r="4.5" transform="rotate(0,275.5,113.5)"/><circle cx="275.5" cy="185.5" r="4.5" transform="rotate(0,275.5,185.5)"/><circle cx="275.5" cy="203.5" r="4.5" transform="rotate(0,275.5,203.5)"/><circle cx="275.5" cy="239.5" r="4.5" transform="rotate(0,275.5,239.5)"/><circle cx="275.5" cy="248.5" r="4.5" transform="rotate(0,275.5,248.5)"/><circle cx="275.5" cy="275.5" r="4.5" transform="rotate(0,275.5,275.5)"/><circle cx="284.5" cy="77.5" r="4.5" transform="rotate(0,284.5,77.5)"/><circle cx="284.5" cy="95.5" r="4.5" transform="rotate(0,284.5,95.5)"/><circle cx="284.5" cy="104.5" r="4.5" transform="rotate(0,284.5,104.5)"/><circle cx="284.5" cy="113.5" r="4.5" transform="rotate(0,284.5,113.5)"/><circle cx="284.5" cy="122.5" r="4.5" transform="rotate(0,284.5,122.5)"/><circle cx="284.5" cy="131.5" r="4.5" transform="rotate(0,284.5,131.5)"/><circle cx="284.5" cy="185.5" r="4.5" transform="rotate(0,284.5,185.5)"/><circle cx="284.5" cy="203.5" r="4.5" transform="rotate(0,284.5,203.5)"/><circle cx="284.5" cy="221.5" r="4.5" transform="rotate(0,284.5,221.5)"/><circle cx="284.5" cy="239.5" r="4.5" transform="rotate(0,284.5,239.5)"/><circle cx="284.5" cy="248.5" r="4.5" transform="rotate(0,284.5,248.5)"/><circle cx="284.5" cy="257.5" r="4.5" transform="rotate(0,284.5,257.5)"/><circle cx="284.5" cy="293.5" r="4.5" transform="rotate(0,284.5,293.5)"/><circle cx="293.5" cy="104.5" r="4.5" transform="rotate(0,293.5,104.5)"/><circle cx="293.5" cy="131.5" r="4.5" transform="rotate(0,293.5,131.5)"/><circle cx="293.5" cy="176.5" r="4.5" transform="rotate(0,293.5,176.5)"/><circle cx="293.5" cy="194.5" r="4.5" transform="rotate(0,293.5,194.5)"/><circle cx="293.5" cy="212.5" r="4.5" transform="rotate(0,293.5,212.5)"/><circle cx="293.5" cy="239.5" r="4.5" transform="rotate(0,293.5,239.5)"/><circle cx="293.5" cy="257.5" r="4.5" transform="rotate(0,293.5,257.5)"/><circle cx="293.5" cy="275.5" r="4.5" transform="rotate(0,293.5,275.5)"/><path clip-rule="evenodd" d="M 1 23.5v 18a 22.5 22.5, 0, 0, 0, 22.5 22.5h 18a 22.5 22.5, 0, 0, 0, 22.5 -22.5v -18a 22.5 22.5, 0, 0, 0, -22.5 -22.5h -18a 22.5 22.5, 0, 0, 0, -22.5 22.5M 23.5 10h 18a 13.5 13.5, 0, 0, 1, 13.5 13.5v 18a 13.5 13.5, 0, 0, 1, -13.5 13.5h -18a 13.5 13.5, 0, 0, 1, -13.5 -13.5v -18a 13.5 13.5, 0, 0, 1, 13.5 -13.5" transform="rotate(0,32.5,32.5)"/><circle cx="23.5" cy="23.5" r="4.5" transform="rotate(0,23.5,23.5)"/><circle cx="23.5" cy="32.5" r="4.5" transform="rotate(0,23.5,32.5)"/><circle cx="23.5" cy="41.5" r="4.5" transform="rotate(0,23.5,41.5)"/><circle cx="32.5" cy="23.5" r="4.5" transform="rotate(0,32.5,23.5)"/><circle cx="32.5" cy="32.5" r="4.5" transform="rotate(0,32.5,32.5)"/><circle cx="32.5" cy="41.5" r="4.5" transform="rotate(0,32.5,41.5)"/><circle cx="41.5" cy="23.5" r="4.5" transform="rotate(0,41.5,23.5)"/><circle cx="41.5" cy="32.5" r="4.5" transform="rotate(0,41.5,32.5)"/><circle cx="41.5" cy="41.5" r="4.5" transform="rotate(0,41.5,41.5)"/><path clip-rule="evenodd" d="M 235 23.5v 18a 22.5 22.5, 0, 0, 0, 22.5 22.5h 18a 22.5 22.5, 0, 0, 0, 22.5 -22.5v -18a 22.5 22.5, 0, 0, 0, -22.5 -22.5h -18a 22.5 22.5, 0, 0, 0, -22.5 22.5M 257.5 10h 18a 13.5 13.5, 0, 0, 1, 13.5 13.5v 18a 13.5 13.5, 0, 0, 1, -13.5 13.5h -18a 13.5 13.5, 0, 0, 1, -13.5 -13.5v -18a 13.5 13.5, 0, 0, 1, 13.5 -13.5" transform="rotate(90,266.5,32.5)"/><circle cx="257.5" cy="23.5" r="4.5" transform="rotate(0,257.5,23.5)"/><circle cx="257.5" cy="32.5" r="4.5" transform="rotate(0,257.5,32.5)"/><circle cx="257.5" cy="41.5" r="4.5" transform="rotate(0,257.5,41.5)"/><circle cx="266.5" cy="23.5" r="4.5" transform="rotate(0,266.5,23.5)"/><circle cx="266.5" cy="32.5" r="4.5" transform="rotate(0,266.5,32.5)"/><circle cx="266.5" cy="41.5" r="4.5" transform="rotate(0,266.5,41.5)"/><circle cx="275.5" cy="23.5" r="4.5" transform="rotate(0,275.5,23.5)"/><circle cx="275.5" cy="32.5" r="4.5" transform="rotate(0,275.5,32.5)"/><circle cx="275.5" cy="41.5" r="4.5" transform="rotate(0,275.5,41.5)"/><path clip-rule="evenodd" d="M 1 257.5v 18a 22.5 22.5, 0, 0, 0, 22.5 22.5h 18a 22.5 22.5, 0, 0, 0, 22.5 -22.5v -18a 22.5 22.5, 0, 0, 0, -22.5 -22.5h -18a 22.5 22.5, 0, 0, 0, -22.5 22.5M 23.5 244h 18a 13.5 13.5, 0, 0, 1, 13.5 13.5v 18a 13.5 13.5, 0, 0, 1, -13.5 13.5h -18a 13.5 13.5, 0, 0, 1, -13.5 -13.5v -18a 13.5 13.5, 0, 0, 1, 13.5 -13.5" transform="rotate(-90,32.5,266.5)"/><circle cx="23.5" cy="257.5" r="4.5" transform="rotate(0,23.5,257.5)"/><circle cx="23.5" cy="266.5" r="4.5" transform="rotate(0,23.5,266.5)"/><circle cx="23.5" cy="275.5" r="4.5" transform="rotate(0,23.5,275.5)"/><circle cx="32.5" cy="257.5" r="4.5" transform="rotate(0,32.5,257.5)"/><circle cx="32.5" cy="266.5" r="4.5" transform="rotate(0,32.5,266.5)"/><circle cx="32.5" cy="275.5" r="4.5" transform="rotate(0,32.5,275.5)"/><circle cx="41.5" cy="257.5" r="4.5" transform="rotate(0,41.5,257.5)"/><circle cx="41.5" cy="266.5" r="4.5" transform="rotate(0,41.5,266.5)"/><circle cx="41.5" cy="275.5" r="4.5" transform="rotate(0,41.5,275.5)"/></clipPath></defs><rect x="0" y="0" height="300" width="300" clip-path="url('#clip-path-background-color')" fill="#fff"/><rect x="0" y="0" height="300" width="300" clip-path="url('#clip-path-dot-color')" fill="#000000"/></svg>